<svg xmlns="http://www.w3.org/2000/svg" width="32" height="32" viewBox="0 0 32 32">
  <g id="search_icon" data-name="search icon" transform="translate(3344 40)">
    <g id="Group_19733" data-name="Group 19733" transform="translate(-3590 -82)">
      <g id="Group_8318" data-name="Group 8318" transform="translate(-580 21)">
        <rect id="Rectangle_1818" data-name="Rectangle 1818" width="32" height="32" rx="8" transform="translate(826 21)" fill="#fff" opacity="0.12"/>
      </g>
    </g>
    <g id="Group_19739" data-name="Group 19739" transform="translate(-4359.343 -865.629)">
      <path id="Path_8698" data-name="Path 8698" d="M12222.058-5228.262l-3.133-3.145a.432.432,0,0,1-.128-.308.426.426,0,0,1,.128-.306.43.43,0,0,1,.61,0l3.134,3.146a.433.433,0,0,1,0,.612.428.428,0,0,1-.3.126A.431.431,0,0,1,12222.058-5228.262Zm-13.058-8.111a5.617,5.617,0,0,1,5.605-5.626,5.617,5.617,0,0,1,5.606,5.626,5.617,5.617,0,0,1-5.6,5.628,5.618,5.618,0,0,1-5.607-5.627Zm3.761-4.385a4.716,4.716,0,0,0-.8.438,4.727,4.727,0,0,0-.7.582,4.543,4.543,0,0,0-.578.705,4.723,4.723,0,0,0-.44.81,4.746,4.746,0,0,0-.37,1.853,4.75,4.75,0,0,0,.37,1.853,4.644,4.644,0,0,0,.44.808,4.647,4.647,0,0,0,.578.705,4.648,4.648,0,0,0,.7.582,4.682,4.682,0,0,0,.8.438,4.7,4.7,0,0,0,1.847.375,4.689,4.689,0,0,0,1.844-.375,4.7,4.7,0,0,0,.807-.439,4.706,4.706,0,0,0,.7-.582,4.786,4.786,0,0,0,.581-.705,4.718,4.718,0,0,0,.437-.807,4.742,4.742,0,0,0,.371-1.854,4.728,4.728,0,0,0-.371-1.853,4.914,4.914,0,0,0-.437-.81,4.944,4.944,0,0,0-.581-.706,4.766,4.766,0,0,0-.7-.582,4.734,4.734,0,0,0-.807-.438,4.656,4.656,0,0,0-1.846-.374,4.666,4.666,0,0,0-1.846.374Zm.509,7.561a3.425,3.425,0,0,1-1.091-.737,3.452,3.452,0,0,1-.735-1.1,3.415,3.415,0,0,1-.27-1.341.433.433,0,0,1,.432-.434.434.434,0,0,1,.434.434,2.575,2.575,0,0,0,2.568,2.578.433.433,0,0,1,.432.434.434.434,0,0,1-.432.434A3.412,3.412,0,0,1,12213.27-5233.2Z" transform="translate(-11184.657 6076.629)" fill="#fff"/>
    </g>
  </g>
</svg>
